<svg id="Grupo_11" data-name="Grupo 11" xmlns="http://www.w3.org/2000/svg" xmlns:xlink="http://www.w3.org/1999/xlink" viewBox="0 0 512 512"><defs><linearGradient id="linear-gradient" x1="-25.56" y1="277.54" x2="526.44" y2="-36.46" gradientUnits="userSpaceOnUse"><stop offset="0" stop-color="#3fe1b0"/><stop offset="0.41" stop-color="#00b3f4"/><stop offset="0.42" stop-color="#03b0f4"/><stop offset="0.82" stop-color="#5561e9"/><stop offset="1" stop-color="#7542e5"/></linearGradient><linearGradient id="linear-gradient-2" x1="91.52" y1="483.35" x2="643.52" y2="169.35" xlink:href="#linear-gradient"/><linearGradient id="linear-gradient-3" x1="35.47" y1="384.82" x2="587.47" y2="70.82" xlink:href="#linear-gradient"/></defs><title>logo</title><path id="Trazado_12" data-name="Trazado 12" d="M355.18,91.91c-11.74,18.15-23.63,36.18-35.42,54.29-6.88,10.57-7.74,10.91-19.46,6.54a110.3,110.3,0,0,0-135.62,51.43,108.63,108.63,0,0,0-12.46,56,12.33,12.33,0,0,1-8.85,13.63c-22.42,9.5-44.59,19.61-66.86,29.45-11.27,5-15.7,2.82-17.56-9.5s-2.72-25-3.45-31.76C56.58,157.72,118,86,205.62,60.54A193.2,193.2,0,0,1,350.48,75.48c9.17,4.59,10.17,8,4.69,16.43" style="fill:url(#linear-gradient)"/><path id="Trazado_13" data-name="Trazado 13" d="M456,300.65A204.39,204.39,0,0,1,292.22,455.57c-12.13,1.92-24.43,2.82-31.39,3.59a201.23,201.23,0,0,1-155.06-70c-5.81-6.41-4.73-11.67,2.9-15.68,22-11.57,44.16-22.9,66.08-34.68A12.68,12.68,0,0,1,191,340.65a109.66,109.66,0,0,0,173-43.12,152.51,152.51,0,0,0,5.2-15.72,8.67,8.67,0,0,1,11.47-6.68c22.43,4.41,44.88,8.71,67.32,13.09,7.24,1.41,9.55,5,8,12.36" style="fill:url(#linear-gradient-2)"/><path id="Trazado_14" data-name="Trazado 14" d="M304.61,256.07a42.48,42.48,0,1,1,0-.34q0,.17,0,.34" style="fill:url(#linear-gradient-3)"/></svg>